<svg xmlns="http://www.w3.org/2000/svg" xmlns:xlink="http://www.w3.org/1999/xlink"><defs><symbol fill="none" viewBox="0 0 4 7" id="arrow-bottom"><path d="M0 7V0l4 3.5L0 7z" fill="currentColor" /></symbol><symbol viewBox="0 0 31 50" id="arrow-left"><path fill="currentColor" d="M30.858 44.142L25 50 0 25 25 0l5.858 5.858L11.717 25z" fill-rule="evenodd" /></symbol><symbol fill="none" viewBox="0 0 4 7" id="arrow-right"><path d="M0 7V0l4 3.5L0 7z" fill="currentColor" /></symbol><symbol fill="none" viewBox="0 0 6 12" id="arrow-wide-right"><path d="M1 .527L4 6.42l-3 5.05" stroke="currentColor" stroke-width="2" /></symbol><symbol viewBox="0 0 42 50" id="bin"><path d="M4.065 15.625v31.25A3.134 3.134 0 0 0 7.19 50h28.125a3.134 3.134 0 0 0 3.125-3.125v-31.25H4.065zM13.44 43.75h-3.125V21.875h3.125V43.75zm6.25 0h-3.125V21.875h3.125V43.75zm6.25 0h-3.125V21.875h3.125V43.75zm6.25 0h-3.125V21.875h3.125V43.75zm7.032-37.5H29.065V2.344A2.35 2.35 0 0 0 26.722 0H15.784a2.35 2.35 0 0 0-2.344 2.344V6.25H3.284A2.35 2.35 0 0 0 .94 8.594V12.5h40.625V8.594a2.35 2.35 0 0 0-2.343-2.344zm-13.282 0h-9.375V3.164h9.375V6.25z" fill="currentColor" fill-rule="evenodd" /></symbol><symbol fill="none" viewBox="0 0 29 28" id="browser-chrome"><path d="M14.95 21.165a6.936 6.936 0 0 1-3.884-1.148c-1.167-.766-2.042-1.75-2.625-2.954L2.7 7C1.496 9.152.95 11.558.95 14c0 3.5 1.14 6.554 3.418 9.16 2.279 2.607 5.114 4.165 8.504 4.676l4.061-7.027c-.409.12-1.09.355-1.983.355z" fill="currentColor" /><path d="M10.547 8.34C11.84 7.338 13.31 7 14.95 7h12.032c-1.24-2.114-2.926-3.9-5.059-5.14C19.79.62 17.465 0 14.95 0c-2.187 0-4.23.465-6.125 1.395-1.896.929-3.65 2.283-4.936 4.02L7.95 12.25c.401-1.567 1.303-2.907 2.598-3.91z" fill="currentColor" /><path d="M27.897 8.75h-8.135c1.422 1.422 2.352 3.245 2.352 5.25a7.16 7.16 0 0 1-1.258 4.102L15.114 28c3.828-.037 7.09-1.422 9.79-4.156 2.696-2.735 4.045-6.016 4.045-9.844 0-1.786-.3-3.665-1.052-5.25z" fill="currentColor" /><path d="M14.95 19.25a5.25 5.25 0 1 0 0-10.5 5.25 5.25 0 0 0 0 10.5z" fill="currentColor" /></symbol><symbol fill="none" viewBox="0 0 29 29" id="browser-safari"><path fill-rule="evenodd" clip-rule="evenodd" d="M14.95 28.787c7.731 0 14-6.268 14-14s-6.269-14-14-14c-7.733 0-14 6.268-14 14 0 7.731 6.267 14 14 14zm.494-24.19V2.73h-.99v1.869h.99zm0 20.568v1.87h-.99v-1.87h.99zm11.658-9.789v-.99h-1.87v.99h1.87zm-22.436-.99v.99h-1.87v-.99h1.87zm19.227-7.748l-.7-.7L21.87 7.26l.7.7 1.322-1.322zM7.328 21.803l.7.7-1.322 1.322-.7-.7 1.322-1.322zm15.865 2.022l.7-.7-1.322-1.322-.7.7 1.322 1.322zM8.028 7.26l-.7.7-1.322-1.322.7-.7L8.028 7.26zm12.055-3.405l-.914-.381-.72 1.725.914.381.72-1.725zm-9.548 20.328l.914.38-.72 1.726-.913-.381.72-1.725zm15.44-4.168l.382-.914-1.726-.72-.38.915 1.725.719zM5.649 10.467l-.38.914-1.726-.72.38-.913 1.726.72zm20.728.247L26 9.8l-1.728.711.376.916 1.73-.712zM5.251 18.337l.377.916-1.729.711-.376-.915 1.728-.712zm13.865 7.971l.916-.377-.712-1.728-.915.377.711 1.728zM11.494 5.183l-.916.377-.711-1.729.915-.376.712 1.728zm1.982 8.466l-4.25 9.8 7.252-7.668 3.802-8.87-6.804 6.738z" fill="currentColor" /></symbol><symbol viewBox="0 0 61 50" id="check"><path fill="currentColor" d="M19.263 39.512L55.848 0l4.856 5.244L19.264 50 0 29.196l4.855-5.244z" fill-rule="evenodd" /></symbol><symbol fill="none" viewBox="0 0 11 9" id="check-bold"><path d="M1.948 3.555l3.895 3.5-1.948 1.813L0 5.368l1.948-1.813z" fill="currentColor" /><path d="M10.655 2.555l-6.76 6.313-1.947-1.813L8.708.74l1.947 1.814z" fill="currentColor" /></symbol><symbol fill="none" viewBox="0 0 9 9" id="check-thin"><path d="M1.534 4.806l3.018 3.018-1.049 1.049L.485 5.855l1.049-1.049z" fill="currentColor" /><path d="M9 3.63L3.758 8.874 2.709 7.824l5.243-5.242L9 3.631z" fill="currentColor" /></symbol><symbol fill="none" viewBox="0 0 7 7" id="close"><path fill-rule="evenodd" clip-rule="evenodd" d="M6.175 0L3.5 2.675.825 0 0 .825 2.675 3.5 0 6.175.825 7 3.5 4.325 6.175 7 7 6.175 4.325 3.5 7 .825 6.175 0z" fill="currentColor" /></symbol><symbol viewBox="0 0 24 24" id="cloud-storage"><path d="M17 9a4.21 4.21 0 0 0-.351.015A5.967 5.967 0 0 0 11 5a6.006 6.006 0 0 0-5.999 6.126A4.007 4.007 0 0 0 2 15c0 2.206 1.794 4 4 4h5v-4.586l-1.293 1.293a.997.997 0 0 1-1.414 0 .999.999 0 0 1 0-1.414l2.999-2.999a1 1 0 0 1 1.416 0l2.999 2.999a.999.999 0 1 1-1.414 1.414L13 14.414V19h4c2.757 0 5-2.243 5-5s-2.243-5-5-5z" /></symbol><symbol viewBox="0 0 24 24" id="code"><path d="M16.707 18.707l6-6a.999.999 0 0 0 0-1.414l-6-6a.999.999 0 1 0-1.414 1.414L20.586 12l-5.293 5.293a.999.999 0 1 0 1.414 1.414zM7.293 5.293l-6 6a.999.999 0 0 0 0 1.414l6 6a.999.999 0 1 0 1.414-1.414L3.414 12l5.293-5.293a.999.999 0 1 0-1.414-1.414z" /></symbol><symbol viewBox="0 0 24 24" id="code1"><path d="M14.578 16.594L19.219 12l-4.641-4.594L15.984 6l6 6-6 6zm-5.156 0L8.016 18l-6-6 6-6 1.406 1.406L4.781 12z" /></symbol><symbol viewBox="0 0 20 20" id="code2"><path d="M.7 9.3l4.8-4.8 1.4 1.42L2.84 10l4.07 4.07-1.41 1.42L0 10l.7-.7zm18.6 1.4l.7-.7-5.49-5.49-1.4 1.42L17.16 10l-4.07 4.07 1.41 1.42 4.78-4.78z" /></symbol><symbol viewBox="0 0 30 28" id="code3"><path d="M9.641 21.859l-.781.781a.5.5 0 0 1-.719 0L.86 15.359a.5.5 0 0 1 0-.719l7.281-7.281a.5.5 0 0 1 .719 0l.781.781a.5.5 0 0 1 0 .719L3.5 15l6.141 6.141a.5.5 0 0 1 0 .719zm9.234-16.672l-5.828 20.172a.496.496 0 0 1-.609.344l-.969-.266a.506.506 0 0 1-.344-.625L16.953 4.64a.496.496 0 0 1 .609-.344l.969.266a.506.506 0 0 1 .344.625zm10.266 10.172L21.86 22.64a.5.5 0 0 1-.719 0l-.781-.781a.5.5 0 0 1 0-.719l6.141-6.141-6.141-6.141a.5.5 0 0 1 0-.719l.781-.781a.5.5 0 0 1 .719 0l7.281 7.281a.5.5 0 0 1 0 .719z" /></symbol><symbol viewBox="0 0 41 45" id="collapsed"><path fill="currentColor" d="M0 0v45l40.94-22.5z" fill-rule="evenodd" /></symbol><symbol fill="none" viewBox="0 0 17 15" id="console"><path fill-rule="evenodd" clip-rule="evenodd" d="M2.053 0a2 2 0 0 0-2 2v11a2 2 0 0 0 2 2h12.998a2 2 0 0 0 2-2V2a2 2 0 0 0-2-2H2.053zm3.255 12.008l-1.361-1.363 3.01-3.069-3.01-3.144 1.361-1.44L9.69 7.576l-4.38 4.432zm3.49-.086v-1.76h5.227v1.76H8.798z" fill="currentColor" /></symbol><symbol fill="none" viewBox="0 0 17 17" id="dashboard"><path fill-rule="evenodd" clip-rule="evenodd" d="M2.125 2.125h4.958v4.958H2.125V2.125zM9.917 2.125h4.958v4.958H9.917V2.125zM9.917 9.917h4.958v4.958H9.917V9.917zM2.125 9.917h4.958v4.958H2.125V9.917z" fill="currentColor" /></symbol><symbol viewBox="0 0 24 24" id="database"><path d="M4 5.002s.003-.095.213-.288c.245-.225.671-.483 1.306-.73C7.018 3.399 9.34 3 12 3s4.982.399 6.482.984c.634.247 1.061.505 1.306.73.205.189.212.281.212.288 0 .003-.007.095-.213.284-.245.225-.671.483-1.306.73C16.982 6.601 14.66 7 12 7s-4.982-.399-6.482-.984c-.634-.247-1.061-.505-1.306-.73C4.004 5.094 4 5.002 4 5.002zm16 9.53v4.471a.779.779 0 0 1-.217.291c-.245.225-.671.482-1.303.728-1.495.582-3.809.978-6.48.978s-4.985-.396-6.48-.978c-.633-.246-1.058-.503-1.303-.728a.865.865 0 0 1-.199-.242l-.006-4.514c.248.126.51.242.782.348C6.591 15.585 9.171 16 12 16s5.409-.415 7.206-1.114c.277-.108.543-.225.794-.354zm0-7.005v4.476a.779.779 0 0 1-.217.291c-.245.225-.671.482-1.303.728-1.495.582-3.809.978-6.48.978s-4.985-.396-6.48-.978c-.633-.246-1.058-.503-1.303-.728a.865.865 0 0 1-.199-.242 1.109 1.109 0 0 0-.009-.117l-.005-4.407c.248.128.513.244.788.352C6.593 8.582 9.18 9 12 9s5.407-.418 7.208-1.12A8.69 8.69 0 0 0 20 7.527zM2 5v14c0 .058.002.116.007.174.057.665.425 1.197.857 1.594.498.457 1.175.824 1.93 1.118C6.591 22.585 9.171 23 12 23s5.409-.415 7.206-1.114c.755-.294 1.432-.661 1.93-1.118.432-.397.8-.929.857-1.594.005-.058.007-.116.007-.174V5c0-.056-.002-.112-.007-.168-.055-.664-.422-1.195-.852-1.59-.498-.459-1.177-.827-1.933-1.122C17.407 1.418 14.82 1 12 1s-5.407.418-7.208 1.12c-.756.295-1.435.664-1.933 1.122-.43.395-.797.927-.852 1.59A1.887 1.887 0 0 0 2 5z" /></symbol><symbol viewBox="0 0 24 28" id="database1"><path d="M12 12c4.703 0 9.422-.844 12-2.656V12c0 2.203-5.375 4-12 4S0 14.203 0 12V9.344C2.578 11.157 7.297 12 12 12zm0 12c4.703 0 9.422-.844 12-2.656V24c0 2.203-5.375 4-12 4S0 26.203 0 24v-2.656C2.578 23.157 7.297 24 12 24zm0-6c4.703 0 9.422-.844 12-2.656V18c0 2.203-5.375 4-12 4S0 20.203 0 18v-2.656C2.578 17.157 7.297 18 12 18zm0-18c6.625 0 12 1.797 12 4v2c0 2.203-5.375 4-12 4S0 8.203 0 6V4c0-2.203 5.375-4 12-4z" /></symbol><symbol viewBox="0 0 24 32" id="document"><path d="M1.5 32h21c.827 0 1.5-.673 1.5-1.5v-21c0-.017-.008-.031-.009-.047-.002-.023-.008-.043-.013-.065a.488.488 0 0 0-.09-.191c-.007-.009-.006-.02-.013-.029l-8-9c-.003-.003-.007-.003-.01-.006a.494.494 0 0 0-.223-.134c-.019-.006-.036-.008-.056-.011C15.557.012 15.53 0 15.5 0h-14C.673 0 0 .673 0 1.5v29c0 .827.673 1.5 1.5 1.5zM16 1.815L22.387 9H16.5c-.22 0-.5-.42-.5-.75V1.815zM1 1.5a.5.5 0 0 1 .5-.5H15v7.25c0 .809.655 1.75 1.5 1.75H23v20.5a.5.5 0 0 1-.5.5h-21c-.28 0-.5-.22-.5-.5v-29zM5.5 14h13a.5.5 0 0 0 0-1h-13a.5.5 0 0 0 0 1zm0 4h13a.5.5 0 0 0 0-1h-13a.5.5 0 0 0 0 1zm0-8h6a.5.5 0 0 0 0-1h-6a.5.5 0 0 0 0 1zm0 12h13a.5.5 0 0 0 0-1h-13a.5.5 0 0 0 0 1zm0 4h13a.5.5 0 0 0 0-1h-13a.5.5 0 0 0 0 1z" fill="currentColor" /></symbol><symbol viewBox="0 0 32 32" id="document-text"><path d="M19.5 3h.5l6 7v18.009A1.998 1.998 0 0 1 24.003 30H8.998a2 2 0 0 1-1.997-2.007V5.008c0-1.109.897-2.007 2.003-2.007h10.497zM19 4H8.996C8.446 4 8 4.455 8 4.995v23.009c0 .55.455.995 1 .995h15c.552 0 1-.445 1-.993V10.999h-4.002A1.995 1.995 0 0 1 19 8.993V3.999zm1 .5v4.491c0 .557.451 1.009.997 1.009H24.7L20 4.5zM10 10v1h7v-1h-7zm0-3v1h7V7h-7zm0 6v1h13v-1H10zm0 3v1h13v-1H10zm0 3v1h13v-1H10zm0 3v1h13v-1H10zm0 3v1h13v-1H10z" fill="currentColor" /></symbol><symbol viewBox="0 0 32 32" id="earth"><path d="M16 0C7.163 0 0 7.163 0 16s7.163 16 16 16 16-7.163 16-16S24.837 0 16 0zm0 30c-1.967 0-3.84-.407-5.538-1.139l7.286-8.197a.998.998 0 0 0 .253-.664v-3a1 1 0 0 0-1-1c-3.531 0-7.256-3.671-7.293-3.707A1 1 0 0 0 9.001 12h-4a1 1 0 0 0-1 1v6c0 .379.214.725.553.894l3.447 1.724v5.871c-3.627-2.53-6-6.732-6-11.489 0-2.147.484-4.181 1.348-6h3.652c.265 0 .52-.105.707-.293l4-4A1 1 0 0 0 12.001 5V2.581a14.013 14.013 0 0 1 4-.581c2.2 0 4.281.508 6.134 1.412A5.961 5.961 0 0 0 20.002 8c0 1.603.624 3.109 1.757 4.243a5.985 5.985 0 0 0 4.536 1.751c.432 1.619 1.211 5.833-.263 11.635a.936.936 0 0 0-.026.163A13.956 13.956 0 0 1 16.002 30z" fill="currentColor" /></symbol><symbol viewBox="0 0 50 40" id="folder"><path d="M20 0H5C2.25 0 .025 2.25.025 5L0 35c0 2.75 2.25 5 5 5h40c2.75 0 5-2.25 5-5V10c0-2.75-2.25-5-5-5H25l-5-5z" fill="currentColor" fill-rule="evenodd" /></symbol><symbol viewBox="0 0 52 50" id="github"><path d="M25.633 0C11.477 0 0 11.476 0 25.633c0 11.325 7.346 20.934 17.53 24.323 1.282.237 1.753-.556 1.753-1.234 0-.61-.024-2.63-.036-4.772-7.132 1.55-8.636-3.025-8.636-3.025-1.167-2.962-2.846-3.75-2.846-3.75-2.326-1.591.176-1.56.176-1.56 2.573.182 3.929 2.642 3.929 2.642 2.286 3.92 5.996 2.786 7.459 2.131.23-1.656.894-2.787 1.628-3.428-5.694-.647-11.68-2.847-11.68-12.668 0-2.799 1.002-5.085 2.642-6.88-.266-.646-1.143-3.253.249-6.784 0 0 2.153-.689 7.05 2.628 2.045-.57 4.238-.853 6.417-.864 2.177.01 4.372.295 6.42.864 4.894-3.317 7.042-2.628 7.042-2.628 1.395 3.531.517 6.138.252 6.783 1.643 1.795 2.638 4.082 2.638 6.881 0 9.845-5.996 12.013-11.705 12.649.92.796 1.739 2.355 1.739 4.747 0 3.43-.03 6.19-.03 7.034 0 .683.46 1.482 1.76 1.23 10.18-3.393 17.515-12.997 17.515-24.319C51.266 11.476 39.79 0 25.633 0z" fill="currentColor" fill-rule="evenodd" /></symbol><symbol viewBox="0 0 33 50" id="google"><path d="M32.31 0H16.827C9.883 0 3.349 5.26 3.349 11.352c0 6.225 4.733 11.25 11.796 11.25.492 0 .969-.01 1.435-.045-.459.878-.786 1.866-.786 2.892 0 1.731.93 3.133 2.108 4.278-.89 0-1.748.026-2.685.026C6.619 29.753 0 35.229 0 40.908 0 46.501 7.255 50 15.855 50c9.803 0 15.217-5.563 15.217-11.155 0-4.485-1.323-7.17-5.415-10.065-1.4-.991-4.077-3.4-4.077-4.816 0-1.659.474-2.478 2.972-4.429 2.562-2.001 4.374-4.814 4.374-8.085 0-3.895-1.734-7.692-4.991-8.946h4.91L32.31 0zm-5.409 37.881c.122.518.19 1.052.19 1.596 0 4.52-2.912 8.05-11.268 8.05-5.944 0-10.236-3.763-10.236-8.281 0-4.43 5.324-8.117 11.268-8.052a12.95 12.95 0 0 1 3.853.617c3.227 2.244 5.54 3.512 6.193 6.068v.002zm-9.515-16.857c-3.989-.12-7.78-4.463-8.47-9.702-.69-5.24 1.986-9.249 5.975-9.13 3.99.12 7.78 4.323 8.47 9.563.69 5.239-1.988 9.389-5.975 9.269z" fill="currentColor" fill-rule="evenodd" /></symbol><symbol viewBox="0 0 32 32" id="heart"><path d="M23.6 2c-3.363 0-6.258 2.736-7.599 5.594C14.659 4.736 11.764 2 8.4 2 3.763 2 0 5.764 0 10.401c0 9.433 9.516 11.906 16.001 21.232C22.131 22.365 32 19.533 32 10.401 32 5.764 28.237 2 23.6 2z" /></symbol><symbol viewBox="0 0 18 18" id="heart-stroke"><path d="M12.5 4C13.878 4 15 5.346 15 7c0 3.154-3.818 5.713-6 6.8-2.184-1.089-6-3.647-6-6.8 0-1.654 1.122-3 2.5-3 .643 0 1.347.44 1.883 1.177l.809.886a1 1 0 0 0 1.617 0l.809-.886C11.154 4.44 11.858 4 12.501 4zm0-2c-1.415 0-2.675.866-3.5 2-.825-1.134-2.085-2-3.5-2C3.015 2 1 4.239 1 7c0 5.719 8 9 8 9s8-3.281 8-9c0-2.761-2.015-5-4.5-5z" /></symbol><symbol fill="none" viewBox="0 0 55 54" id="heart2"><path clip-rule="evenodd" d="M47.088 12.433a11.714 11.714 0 0 0-16.57 0l-2.258 2.258-2.258-2.258c-4.575-4.576-11.994-4.576-16.57 0-4.576 4.576-4.576 11.995 0 16.57l2.258 2.258 16.57 16.57 16.57-16.57 2.258-2.257a11.714 11.714 0 0 0 0-16.571z" stroke="currentColor" stroke-width="5" stroke-linecap="round" stroke-linejoin="round" /></symbol><symbol viewBox="0 0 53 50" id="hidden"><path d="M48.962.728a2.483 2.483 0 0 0-3.513 0L34.985 11.192A29.194 29.194 0 0 0 26.5 9.938c-11.559 0-21.578 6.732-26.5 16.563a30.349 30.349 0 0 0 8.955 10.72L.728 45.449a2.483 2.483 0 0 0 1.757 4.24c.636 0 1.272-.242 1.758-.727l44.719-44.72c.97-.97.97-2.543 0-3.512V.728zm-27.43 15.836a4.97 4.97 0 0 1 4.706 3.373l-6.3 6.3a4.97 4.97 0 0 1 1.594-9.673zM5.7 26.5a25.214 25.214 0 0 1 7.735-7.78c.202-.128.407-.254.614-.377a13.225 13.225 0 0 0-.798 4.533c0 2.84.894 5.473 2.417 7.63l-3.154 3.154a25.206 25.206 0 0 1-6.814-7.16zm34.051-3.622c0-1.406-.22-2.761-.626-4.031L22.47 35.503c1.272.406 2.627.626 4.033.626 7.317 0 13.25-5.933 13.25-13.25h-.002zm3.21-7.869l-3.59 3.59.195.123a25.196 25.196 0 0 1 7.735 7.78 25.214 25.214 0 0 1-7.735 7.78A24.252 24.252 0 0 1 26.5 38.096c-2.001 0-3.98-.247-5.898-.727l-3.98 3.98a29.129 29.129 0 0 0 9.878 1.716c11.557 0 21.576-6.731 26.5-16.563a30.297 30.297 0 0 0-10.04-11.491l.001-.002z" fill="currentColor" fill-rule="evenodd" /></symbol><symbol viewBox="0 0 24 24" id="https"><path d="M15.094 8.016V6q0-1.266-.914-2.18T12 2.906t-2.18.914T8.906 6v2.016h6.188zm-3.094 9q.797 0 1.406-.609t.609-1.406-.609-1.406T12 12.986t-1.406.609-.609 1.406.609 1.406 1.406.609zm6-9q.797 0 1.406.586t.609 1.383v10.031q0 .797-.609 1.383T18 21.985H6q-.797 0-1.406-.586t-.609-1.383V9.985q0-.797.609-1.383T6 8.016h.984V6q0-2.063 1.477-3.539T12 .984t3.539 1.477T17.016 6v2.016H18z" /></symbol><symbol fill="none" viewBox="0 0 55 55" id="infinity"><path fill-rule="evenodd" clip-rule="evenodd" d="M27.5 55C42.688 55 55 42.688 55 27.5S42.688 0 27.5 0 0 12.312 0 27.5 12.312 55 27.5 55zm3.097-32.064c2.734-2.36 5.195-3.59 7.79-3.896.582-.07 2-.043 2.579.042 1.819.277 3.41.922 4.633 1.876.44.34 1.11 1.01 1.429 1.432.985 1.284 1.647 2.95 1.91 4.796.074.516.084 1.86.02 2.37a9.401 9.401 0 0 1-2.767 5.591c-1.527 1.492-3.393 2.41-5.578 2.739-.407.063-.629.076-1.345.076-.524 0-.982-.014-1.177-.04-2.636-.355-4.727-1.422-7.484-3.828a68.597 68.597 0 0 1-2.588-2.445c-.26-.264-.491-.48-.518-.48-.024 0-.532.47-1.123 1.046-1.698 1.646-2.488 2.34-3.567 3.127-.858.628-1.547 1.053-2.364 1.451-2.084 1.017-4.448 1.416-6.58 1.103-3.426-.5-6.139-2.683-7.275-5.855C6.182 30.9 6 29.825 6 28.535c0-.813.034-1.178.171-1.86.609-3.047 2.788-5.65 5.763-6.888a10.022 10.022 0 0 1 5.612-.613c2.888.52 5.382 2.143 9.229 5.997.332.333.632.62.669.639.057.03.171-.066.944-.82 1.086-1.056 1.544-1.48 2.21-2.053zm-10.1 1.633c-1.122-.816-2.266-1.35-3.395-1.583-.343-.07-.521-.086-1.1-.096-.494-.01-.773 0-.985.033-1.883.3-3.409 1.38-4.256 3.012-.74 1.422-.84 2.949-.303 4.559.632 1.886 2.085 3.153 4.068 3.544.333.066.485.076 1.123.076.82 0 1.22-.053 1.9-.243 1.439-.409 2.969-1.32 4.623-2.762.52-.458 2.673-2.541 2.673-2.594 0-.032-2.468-2.393-2.959-2.83a21.17 21.17 0 0 0-1.389-1.116zm22.507-.401c-.794-.682-1.729-1.093-2.828-1.245a8.3 8.3 0 0 0-1.715 0c-1.946.267-3.759 1.264-6.052 3.338-.679.612-2.255 2.189-2.245 2.241.01.05 1.674 1.652 2.508 2.416 1.328 1.218 2.387 1.978 3.486 2.505 1.046.503 1.883.707 2.925.707.589 0 1.029-.052 1.527-.18 2.064-.54 3.681-2.206 4.132-4.263.444-2.02-.263-4.256-1.738-5.52z" fill="currentColor" /></symbol><symbol viewBox="0 0 20 20" id="lock-closed"><path d="M4 8V6a6 6 0 1 1 12 0v2h1a2 2 0 0 1 2 2v8a2 2 0 0 1-2 2H3a2 2 0 0 1-2-2v-8c0-1.1.9-2 2-2h1zm5 6.73V17h2v-2.27a2 2 0 1 0-2.009-.005L9 14.73zM7 6v2h6V6a3 3 0 1 0-6 0z" /></symbol><symbol fill="none" viewBox="0 0 67 50" id="members"><path fill-rule="evenodd" clip-rule="evenodd" d="M15 32.046c-1.932-1.79-4.656-2.289-6.796-1.944-2.14.345-2.953.957-4.033 1.955-1.073 1.005-1.644 2.402-1.811 2.972-.168.57-.718 2.794 0 3.626.718.832.952-.12 8.588.017 0 0 .684-2.121 1.583-3.637.899-1.521 2.469-2.99 2.469-2.99zM13 28a5 5 0 1 0 0-10 5 5 0 0 0 0 10zM33.478 28.537c6.454 0 11.684-10.414 11.684-16.86C45.162 5.23 39.932 0 33.478 0c-6.454 0-11.685 5.23-11.685 11.677 0 6.446 5.238 16.86 11.685 16.86zM50.899 34.196c-2.214-2.3-3.78-3.562-7.888-4.186-.515-.078-3.508.093-3.89.413-1.621 1.364-3.539 2.12-5.573 2.136h-.055c-2.065-.008-3.998-.756-5.635-2.128-.382-.32-3.383-.5-3.898-.421-4.108.623-5.674 1.878-7.888 4.186-.787.818-1.8 2.673-1.8 2.673s-1.669 2.253-1.864 6.961c-.023.507.102 1.044.554 1.325 2.533 1.575 11.528 2.362 20.516 2.362h.015c8.995 0 17.983-.787 20.516-2.362.452-.28.577-.818.554-1.325-.203-4.708-1.622-6.758-1.622-6.758a11.459 11.459 0 0 0-2.042-2.876zM64.64 35.03c-.167-.571-.738-1.968-1.811-2.973-1.074-1.004-1.892-1.61-4.032-1.955-2.134-.345-4.858.155-6.797 1.944.007.005 1.57 1.474 2.469 2.99.9 1.515 1.583 3.636 1.583 3.636 7.642-.136 7.877.815 8.588-.017.718-.832.168-3.055 0-3.626zM53 28a4.999 4.999 0 1 0 0-10 5 5 0 1 0 0 10z" fill="currentColor" /></symbol><symbol viewBox="0 0 50 34" id="menu"><path d="M0 33.333h50v-5.555H0v5.555zm0-13.889h50V13.89H0v5.555zM0 0v5.556h50V0H0z" fill="currentColor" fill-rule="evenodd" /></symbol><symbol fill="none" viewBox="0 0 13 3" id="more"><circle cx="1.5" cy="1.5" r="1.5" fill="currentColor" /><circle cx="6.5" cy="1.5" r="1.5" fill="currentColor" /><circle cx="11.5" cy="1.5" r="1.5" fill="currentColor" /></symbol><symbol fill="none" viewBox="0 0 3 11" id="more-vertical"><circle cx="1.5" cy="1.5" r="1.5" fill="currentColor" /><circle cx="1.5" cy="5.5" r="1.5" fill="currentColor" /><circle cx="1.5" cy="9.5" r="1.5" fill="currentColor" /></symbol><symbol viewBox="0 0 32 32" id="new-window"><path d="M8 20s1.838-6 12-6v6l12-8-12-8v6c-8 0-12 4.99-12 10zm14 4H4V12h3.934c.315-.372.654-.729 1.015-1.068 1.374-1.287 3.018-2.27 4.879-2.932H.001v20h26v-8.395l-4 2.667V24z" fill="currentColor" /></symbol><symbol fill="none" viewBox="0 0 55 54" id="package"><g stroke="currentColor" stroke-width="5" stroke-linecap="round" stroke-linejoin="round"><path clip-rule="evenodd" d="M29.237 3.263l18 9a4.5 4.5 0 0 1 2.498 4.027v21.443a4.5 4.5 0 0 1-2.498 4.027l-18 9a4.5 4.5 0 0 1-4.027 0l-18-9a4.5 4.5 0 0 1-2.475-4.05V16.29a4.5 4.5 0 0 1 2.497-4.027l18-9a4.5 4.5 0 0 1 4.005 0z" /><path d="M5.454 13.86l21.78 10.89 21.78-10.89M27.235 51.21V24.75" /></g></symbol><symbol viewBox="0 0 50 50" id="pause"><path d="M25 0C11.192 0 0 11.192 0 25s11.192 25 25 25 25-11.192 25-25S38.808 0 25 0zm0 45.313C13.781 45.313 4.687 36.218 4.687 25S13.781 4.687 25 4.687 45.313 13.781 45.313 25 36.218 45.313 25 45.313zm-9.375-29.688h6.25v18.75h-6.25v-18.75zm12.5 0h6.25v18.75h-6.25v-18.75z" fill="currentColor" fill-rule="evenodd" /></symbol><symbol fill="none" viewBox="0 0 21 22" id="placeholder"><path fill-rule="evenodd" clip-rule="evenodd" d="M10.5 12.466c-1.852 0-3.5.534-4.559 2.358l-1 3.706 5.559 1.348 5.559-1.348-1-3.706C14 13 12.354 12.466 10.5 12.466zM10.504 6A2.503 2.503 0 0 0 8 8.5C8 9.88 9.122 11 10.504 11A2.496 2.496 0 0 0 13 8.5C13 7.12 11.887 6 10.504 6z" fill="#757575" /><circle cx="10.5" cy="11.02" r="9.5" stroke="#757575" stroke-width="2" /></symbol><symbol viewBox="0 0 50 50" id="play"><path d="M25 0C11.192 0 0 11.192 0 25s11.192 25 25 25 25-11.192 25-25S38.808 0 25 0zm0 45.313C13.781 45.313 4.687 36.218 4.687 25S13.781 4.687 25 4.687 45.313 13.781 45.313 25 36.218 45.313 25 45.313zm-6.25-31.25L37.5 25 18.75 35.938V14.061z" fill="currentColor" fill-rule="evenodd" /></symbol><symbol fill="none" viewBox="0 0 185 25" id="playcode"><path d="M4.34 24v-7.8h1.65c6.12 0 8.97-3.09 8.97-7.65 0-5.49-4.14-7.26-9.51-7.26H.5V24h3.84zm0-11.28V4.8H6.5c2.88 0 4.41 1.41 4.41 3.72 0 2.43-1.68 4.2-5.01 4.2H4.34zM34.838 23.97v-3.48h-9.51V1.29h-3.84v22.68h13.35zM61.114 24L49.535.36 37.925 24h4.26l2.04-4.44h10.53l2.07 4.44h4.29zm-7.95-7.92h-7.35l3.24-7.05c.15-.33.39-.81.45-1.08.03.27.24.78.39 1.08l3.27 7.05zM75.427 24v-9.39l8.46-13.32h-4.26l-5.82 9.63c-.15.24-.21.39-.24.81-.03-.45-.06-.6-.18-.81l-5.82-9.63h-4.26l8.28 13.32V24h3.84zM106.426 18.99c-.9.9-3.21 2.07-6.06 2.07-5.13 0-8.7-3.81-8.7-8.55 0-4.32 3-8.25 8.1-8.25 2.34 0 4.65.84 6.24 2.4l2.04-2.67c-.75-.9-3.63-3.21-8.28-3.21-7.2 0-12.18 5.46-12.18 11.82 0 6.51 5.25 11.88 12.6 11.88 3.24 0 5.94-1.02 8.01-3l-1.77-2.49zM138.128 12.75c0-6.84-5.46-11.97-12.3-11.97-6.9 0-12.39 5.37-12.39 11.88 0 6.48 5.49 11.82 12.39 11.82 6.66 0 12.3-5.28 12.3-11.73zm-4.08-.03c0 4.65-3.69 8.34-8.43 8.34-4.44 0-8.1-4.08-8.1-8.52 0-4.68 3.75-8.28 8.31-8.28 4.47 0 8.22 3.6 8.22 8.46zM150.945 24c7.74 0 12.87-4.14 12.87-11.34 0-7.44-5.52-11.37-12.3-11.37h-6.57V24h6zm-2.16-3.48V4.77h3.12c4.56 0 7.83 3.09 7.83 7.8 0 5.7-3.75 7.95-8.28 7.95h-2.67zM184.838 23.97v-3.48h-10.26v-6.81h7.5V10.2h-7.5V4.8h9.3V1.32h-13.14v22.65h14.1z" fill="currentColor" /></symbol><symbol fill="none" viewBox="0 0 208 178" id="playcode-icon"><path fill-rule="evenodd" clip-rule="evenodd" d="M95.38 4.026l-2.407 1.91c-4.862 3.862-7.727 9.968-7.72 16.454l.146 134.607c.006 6.453 2.858 12.527 7.69 16.381 6.877 5.485 16.32 5.393 23.094-.235l83.655-69.451c4.666-3.874 7.397-9.843 7.397-16.171v-.236c0-6.361-2.767-12.363-7.477-16.237L118.364 4.222c-6.762-5.556-16.138-5.635-22.985-.196zM2.005 80.343l50.437-38.79c2.875-2.207 6.934-.068 6.934 3.66v11.508c0 1.413-.63 2.752-1.706 3.609L26.11 86.636v.318l31.469 24.882c1.13.857 1.798 2.225 1.798 3.677v13.006c0 3.728-4.065 5.873-6.94 3.654L2.002 93.247C.892 92.39.234 91.034.234 89.593v-5.59c0-1.447.658-2.803 1.772-3.66zm119.319-38.79l47.284 38.79c1.045.857 1.661 2.213 1.661 3.66v5.59c0 1.44-.616 2.797-1.656 3.654l-47.284 38.926c-2.695 2.219-6.506.074-6.506-3.654v-13.006c0-1.452.626-2.82 1.686-3.677l29.733-24.882v-.318L116.424 60.33c-1.009-.857-1.6-2.196-1.6-3.61V45.214c0-3.728 3.806-5.867 6.501-3.66z" fill="currentColor" /></symbol><symbol fill="none" viewBox="0 0 9 9" id="plus"><path d="M0 4h9v1H0V4z" fill="currentColor" /><path d="M5 0v9H4V0h1z" fill="currentColor" /></symbol><symbol viewBox="0 0 20 20" id="publish"><path d="M9.967 8.193L5 13h3v6h4v-6h3L9.967 8.193zM18 1H2C.9 1 0 1.9 0 3v12c0 1.1.9 2 2 2h4v-2H2V6h16v9h-4v2h4c1.1 0 2-.9 2-2V3c0-1.1-.9-2-2-2zM2.5 4.25a.75.75 0 1 1 0-1.5.75.75 0 0 1 0 1.5zm2 0a.75.75 0 1 1 0-1.5.75.75 0 0 1 0 1.5zM18 4H6V3h12.019L18 4z" /></symbol><symbol fill="none" viewBox="0 0 15 15" id="radio"><circle cx="7.5" cy="7.5" r="7" stroke="currentColor" /></symbol><symbol fill="none" viewBox="0 0 15 15" id="radio-checked"><path fill-rule="evenodd" clip-rule="evenodd" d="M7.5 15a7.5 7.5 0 1 0 0-15 7.5 7.5 0 0 0 0 15zm-.858-3.642L12.5 5.5l-1.172-1.172L6.5 9.157 4.157 6.814 2.985 7.985l3.373 3.373.142-.142.142.142z" fill="currentColor" /></symbol><symbol fill="none" viewBox="0 0 14 15" id="reload"><path d="M0 7.878C0 11.684 3.433 15 7.17 15c2.668 0 4.972-1.247 6.075-3.528.445-.917-1.39-1.314-1.81-.52-.858 1.57-2.456 1.836-4.264 1.836-2.72 0-5.055-2.273-5.055-4.91 0-2.728 2.377-4.981 5.055-4.981.914 0 1.502.205 1.88.44.464.289.39 1.02.03 1.435-.673.78-1.495 1.774-1.495 1.774-.782.796.103.784.103.784l4.874.002c.543 0 1.191.081 1.344-.065.153-.147.07-.812.071-1.365l.008-5.531c-.01-.823-.792-.02-.792-.02l-1.21 1.273c-.378.396-.995.395-1.452.096C9.847 1.271 8.713.75 7.17.774 3.434.774 0 4.067 0 7.878z" fill="currentColor" /></symbol><symbol fill="none" viewBox="0 0 11 13" id="run"><path d="M1.53 12.583A1 1 0 0 1 0 11.735V1.002A1 1 0 0 1 1.53.154l8.587 5.366a1 1 0 0 1 0 1.696L1.53 12.583z" fill="currentColor" /></symbol><symbol fill="none" viewBox="0 0 15 15" id="settings"><path fill-rule="evenodd" clip-rule="evenodd" d="M7.5 10.385a2.885 2.885 0 1 0 0-5.77 2.885 2.885 0 0 0 0 5.77zm5.046-.84c-.186.421-.097.913.225 1.241l.04.041a1.364 1.364 0 1 1-1.93 1.93l-.04-.041A1.125 1.125 0 0 0 9.6 12.49c-.412.177-.68.581-.682 1.03v.115a1.364 1.364 0 0 1-2.727 0v-.061a1.125 1.125 0 0 0-.736-1.03 1.125 1.125 0 0 0-1.241.226l-.041.04a1.364 1.364 0 1 1-1.93-1.93l.041-.04c.322-.329.41-.82.225-1.241a1.125 1.125 0 0 0-1.03-.682h-.115a1.364 1.364 0 1 1 0-2.727h.061c.462-.01.87-.303 1.03-.736.185-.421.096-.913-.225-1.241l-.041-.041a1.364 1.364 0 1 1 1.93-1.93l.04.041c.329.322.82.41 1.241.225h.055c.412-.177.68-.581.681-1.03v-.115a1.364 1.364 0 1 1 2.728 0v.061c.001.448.27.853.681 1.03.421.185.913.096 1.241-.225l.041-.041a1.363 1.363 0 1 1 1.93 1.93l-.041.04c-.322.329-.41.82-.225 1.241v.055c.177.412.581.68 1.03.681h.115a1.364 1.364 0 0 1 0 2.728h-.061c-.448.001-.853.27-1.03.681z" fill="currentColor" /></symbol><symbol viewBox="0 0 32 32" id="spinner1"><path d="M16 9.472a1.865 1.865 0 0 1-1.865-1.865V2.011a1.865 1.865 0 0 1 3.73 0v5.596c0 1.03-.835 1.865-1.865 1.865zM16 31.155a1.166 1.166 0 0 1-1.166-1.166v-5.596a1.166 1.166 0 1 1 2.332 0v5.596c0 .644-.522 1.166-1.166 1.166zM11.805 10.48a1.749 1.749 0 0 1-1.516-.875L7.491 4.759A1.75 1.75 0 0 1 10.52 3.01l2.798 4.846a1.75 1.75 0 0 1-1.513 2.624zM22.995 29.164a1.05 1.05 0 0 1-.91-.525l-2.798-4.846a1.049 1.049 0 1 1 1.817-1.049l2.798 4.846a1.049 1.049 0 0 1-.908 1.574zM8.729 13.436c-.277 0-.557-.07-.814-.219l-4.846-2.798a1.631 1.631 0 1 1 1.632-2.826l4.846 2.798a1.631 1.631 0 0 1-.818 3.045zM28.114 23.927a.923.923 0 0 1-.465-.125l-4.846-2.798a.932.932 0 1 1 .933-1.615l4.846 2.798a.932.932 0 0 1-.468 1.74zM7.607 17.515H2.011a1.515 1.515 0 1 1 0-3.03h5.596a1.515 1.515 0 1 1 0 3.03zM29.989 16.933h-5.596a.933.933 0 0 1 0-1.866h5.596a.933.933 0 0 1 0 1.866zM3.886 24.394a1.399 1.399 0 0 1-.701-2.611l4.846-2.798a1.398 1.398 0 1 1 1.399 2.423l-4.846 2.798c-.22.127-.461.188-.698.188zM23.27 12.736a.934.934 0 0 1-.468-1.74l4.846-2.798a.933.933 0 0 1 .933 1.615l-4.846 2.798a.925.925 0 0 1-.465.125zM9.004 29.397a1.283 1.283 0 0 1-1.109-1.924l2.798-4.846a1.283 1.283 0 0 1 2.221 1.283l-2.798 4.846a1.281 1.281 0 0 1-1.112.641zM20.196 9.664a.932.932 0 0 1-.806-1.399l2.798-4.846a.932.932 0 1 1 1.615.933l-2.798 4.846a.932.932 0 0 1-.809.466z" /></symbol><symbol viewBox="0 0 32 32" id="spinner2"><path d="M16 0C7.289 0 .204 6.961.005 15.624.19 8.066 5.937 2 13 2c7.18 0 13 6.268 13 14a3 3 0 1 0 6 0c0-8.837-7.163-16-16-16zm0 32c8.711 0 15.796-6.961 15.995-15.624C31.81 23.934 26.063 30 19 30c-7.18 0-13-6.268-13-14a3 3 0 1 0-6 0c0 8.837 7.163 16 16 16z" /></symbol><symbol fill="none" viewBox="0 0 17 17" id="tile"><path fill-rule="evenodd" clip-rule="evenodd" d="M2 2h4.958v4.958H2V2zM10 2h4.958v4.958H10V2zM10 10h4.958v4.958H10V10zM2 10h4.958v4.958H2V10z" fill="currentColor" /></symbol><symbol viewBox="0 0 50 25" id="triangle"><path fill="currentColor" d="M25 25L0 0h50L25 25" fill-rule="evenodd" /></symbol><symbol viewBox="0 0 24 24" id="tv2"><path d="M21 17.016v-12H3v12h18zM21 3q.797 0 1.406.609t.609 1.406l-.047 12q0 .797-.586 1.383t-1.383.586h-5.016V21H8.014v-2.016H2.998q-.797 0-1.406-.586t-.609-1.383v-12q0-.797.609-1.406T2.998 3h18z" /></symbol><symbol viewBox="0 0 30 28" id="tv3"><path d="M28 19.5v-15c0-.266-.234-.5-.5-.5h-25c-.266 0-.5.234-.5.5v15c0 .266.234.5.5.5h25c.266 0 .5-.234.5-.5zm2-15v15c0 1.375-1.125 2.5-2.5 2.5H16v2h5.5c.281 0 .5.219.5.5v1c0 .281-.219.5-.5.5h-13a.494.494 0 0 1-.5-.5v-1c0-.281.219-.5.5-.5H14v-2H2.5A2.507 2.507 0 0 1 0 19.5v-15C0 3.125 1.125 2 2.5 2h25C28.875 2 30 3.125 30 4.5z" /></symbol><symbol viewBox="0 0 50 46" id="uncollapsed"><path fill="currentColor" d="M0 0l25 45.49L50 0z" fill-rule="evenodd" /></symbol><symbol viewBox="0 0 28 28" id="user"><path d="M14 0c7.734 0 14 6.266 14 14 0 7.688-6.234 14-14 14-7.75 0-14-6.297-14-14C0 6.266 6.266 0 14 0zm9.672 21.109C25.125 19.109 26 16.656 26 14c0-6.609-5.391-12-12-12S2 7.391 2 14c0 2.656.875 5.109 2.328 7.109C4.89 18.312 6.25 16 9.109 16a6.979 6.979 0 0 0 9.782 0c2.859 0 4.219 2.312 4.781 5.109zM20 11c0-3.313-2.688-6-6-6s-6 2.688-6 6 2.688 6 6 6 6-2.688 6-6z" fill="currentColor" /></symbol><symbol viewBox="0 0 20 20" id="view-list"><path d="M0 3h20v2H0V3zm0 4h20v2H0V7zm0 4h20v2H0v-2zm0 4h20v2H0v-2z" fill="currentColor" /></symbol><symbol viewBox="0 0 20 20" id="view-tile"><path d="M0 0h9v9H0V0zm2 2v5h5V2H2zm-2 9h9v9H0v-9zm2 2v5h5v-5H2zm9-13h9v9h-9V0zm2 2v5h5V2h-5zm-2 9h9v9h-9v-9zm2 2v5h5v-5h-5z" fill="currentColor" /></symbol><symbol viewBox="0 0 53 34" id="visible"><path d="M26.5 0C14.941 0 4.922 6.731 0 16.563c4.922 9.831 14.941 16.562 26.5 16.562S48.076 26.394 53 16.562C48.078 6.732 38.059 0 26.5 0zm13.066 8.783a25.196 25.196 0 0 1 7.735 7.78 25.214 25.214 0 0 1-7.735 7.779A24.251 24.251 0 0 1 26.5 28.156a24.251 24.251 0 0 1-13.066-3.814 25.196 25.196 0 0 1-7.735-7.78 25.214 25.214 0 0 1 7.735-7.779c.202-.13.407-.255.614-.378a13.225 13.225 0 0 0-.798 4.534c0 7.317 5.933 13.25 13.25 13.25s13.25-5.933 13.25-13.25c0-1.594-.282-3.12-.798-4.534.205.123.41.249.614.378zM26.5 11.593a4.968 4.968 0 1 1-9.937.001 4.968 4.968 0 0 1 9.937 0z" fill="currentColor" fill-rule="evenodd" /></symbol></defs></svg>